<svg xmlns="http://www.w3.org/2000/svg" version="1.1" xmlns:xlink="http://www.w3.org/1999/xlink" width="1500" height="816" viewBox="0 0 1500 816"><svg xml:space="preserve" width="1500" height="816" data-version="2" data-id="lg_FklsowYcfpiJn59RCk" viewBox="0 0 755 816" x="0" y="0"><rect width="100%" height="100%" fill="transparent"></rect><path d="M374.374 161.034c-.12-.26 5.855 1.207 8.104 1.425a7.003 7.05 0 0 0 1.82-13.832 61.138 61.543 0 0 0-8.473-1.59c-9.146-.779-10.584 12.879-1.45 13.997m42.463 1.425c2.266-.238 8.138-1.647 8.11-1.425a6.99 7.035 0 0 0 6.224-7.726c-2.006-8.2-7.496-6.683-16.148-4.683a7.003 7.05 0 0 0 1.814 13.834m28.183 479.254c-9.188.158-9.188 13.918 0 14.072 9.188-.156 9.188-13.916 0-14.072"></path><path d="M53.654 508.84h30.649v28.614a34.062 34.287 0 0 0 22.32 32.318c20.482 7.404 43.984 27.01 39.617 78.377a7.034 7.08 0 0 0 6.965 7.636h173.508a6.99 7.035 0 0 0 6.989-7.037v-28.616c.032-29.681 22.01-54.695 51.27-58.352 3.992-.45 45.297-6.288 52.448-52.944h14.035c6.637 46.888 56.574 57.401 86.194 59.594 18.513 2.975 54.272 70.379-54.839 73.197a7.032 7.078 0 0 0 .134 14.154h166.484a6.991 7.037 0 0 0 6.991-7.037c-.115-1.289.203-120.82-.105-122.052a133.044 133.925 0 0 0 13.511-17.856h22.9a6.991 7.037 0 0 0 6.99-7.038v-30.424a6.99 7.035 0 0 0-6.99-7.035h-9.658a35.937 36.175 0 0 0-1.479-4.9c11.248-24.639 39.064-102.259-14.872-175.282-3.075-4.45-66.922-95.613-137.42-98.576a25.286 25.454 0 0 0-11.065-11.627c15.33-17.972 6.558-47.853-16.07-53.9-9.71-119.462-177.64-92.893-164.957 40.28a188.069 189.315 0 0 0-11.978 34.358c-11.229 4.227-19.252 10.538-23.397 18.42-27.728 4.114-50.62 8.606-55.284 9.538a99.286 99.944 0 0 1-53.202-17.85c2.75-10.792 3.706-30.984 4.238-43.874a12.41 12.493 0 0 0-11.053-12.943l-29.091-3.199a6.17 6.21 0 0 1-6.164-6.542 6.405 6.447 0 0 1 6.51-5.877h53.443v5.952h.09a25.798 25.969 0 0 0 25.691 24.146h37.995a25.784 25.955 0 0 0 25.783-25.96V34.107A25.784 25.955 0 0 0 275.002 8.15h-37.993a25.784 25.955 0 0 0-25.783 25.957v9.206a25.412 25.58 0 0 0-11.62-2.836h-49.81a37.774 38.024 0 0 0-32.643 18.831h-49.21a19.207 19.335 0 0 0-19.207 19.345v9.978a19.207 19.335 0 0 0 19.208 19.335h33.201a272.137 273.94 0 0 0-26.629 127.796c.097 22.173 23.88 38.409 44.413 30.972 32.063 70.876 76.047 103.416 114.14 126.835a86.026 86.596 0 0 1 31.76 32.504q-.49 17.17-.203 35.278H53.654a6.99 7.035 0 0 0-6.991 7.036v33.41a6.991 7.037 0 0 0 6.99 7.043M225.196 34.107A11.82 11.898 0 0 1 237 22.223h37.994A11.818 11.896 0 0 1 286.8 34.107v102.396a11.818 11.896 0 0 1-11.804 11.881H237.01a11.818 11.896 0 0 1-11.805-11.881Zm-119.8 59.768H67.944a5.235 5.27 0 0 1-5.23-5.264v-9.978a5.235 5.27 0 0 1 5.23-5.262h42.624a88.465 89.051 0 0 0-5.172 20.504m22.007 51.365c-8.553-.146-8.551-12.953 0-13.1 8.542.145 8.54 12.954 0 13.1m65.07 200.737c-15.513-14.59-44.301-45.104-60.149-83.489 21.271-7.738 43.566-21.15 55.64-44.366a113.226 113.976 0 0 0 44.405 17.253c-29.973 36.562-37.847 86.083-39.906 110.6Zm191.108 201.807c-36.4 4.388-63.81 35.448-63.85 72.35v21.585H218.59a279.072 279.072 0 0 0-1.912-34.414 23.229 23.383 0 0 1 23.019-26.358h37.508a12.44 12.523 0 0 0 12.441-12.523 11.816 11.894 0 0 0-11.815-11.892h-57.615s-30.343-4.622-38.775-32.377H418.03a45.843 46.147 0 0 1-34.458 23.627Zm67.672-53.015H347.68a8.48 8.536 0 0 1-8.47-8.528v-20.406a8.48 8.536 0 0 1 8.47-8.528h23.195a22.717 22.868 0 0 1 17.34 8.074 36.681 36.924 0 0 0 27.993 13.033h35.037ZM658.71 297.085c40.422 58.85 24.633 120.28 13.655 148.263-13.149-15.6-45.236-35.939-87.058-24.894a59.89 60.287 0 0 0-13.879-32.815c5.792-26.215 28.232-70.755 87.272-90.556ZM509.644 161.757c-3.263 6.388-9.587 8.475-14.921 9-1.337-18.227-1.75-31.082-1.863-38.392 14.832 1.185 23.658 15.93 16.784 29.392m-137.66-79.253c32.817-37.969 111.239-34.149 115.932 35.474-19.845-1.963-33.866 14.556-33.301 39.488-.176 2.077-2.144 19.879-18.138 24.949a34.679 34.908 0 0 0-21.53 18.876c-2.698 6.148-8.584 9.137-18.003 9.137-3.597.204-13.149-.093-14.86-16.056a10.408 10.477 0 0 1 2.2-6.58c5.867-7.126-4.54-16.07-10.618-9.162a22.555 22.705 0 0 0-4.248 7.617c-6.736-2.604-16.424-9.14-18.151-25.335-.055-.603-4.736-48.623 20.716-78.408m-13.902 252.815c4.758 3.753 11.972.458 20.486-8.038 5.664 9.367 20.86 28.091 43.29 35.84 2.917 1.221 34.952-18.448 51.258-37.957.67 12.386 1.528 24.126 2.571 35.024 2.333 19.217-14.16 37.297-33.335 36.902h-50.835c-26.353.075-48.034-20.862-49.056-47.369a1050.903 1057.864 0 0 1-.847-34.158 86.131 86.702 0 0 0 16.468 19.756M313.94 220.137a20.793 20.931 0 0 1 7.79-8.161c-3.428 22.122-3.507 48.806 6.104 75.547-.502 19.687-.215 40.777.66 62.769 1.316 34.053 29.17 60.95 63.023 60.865h50.835c27.194.594 50.457-25.126 47.25-52.333-1.559-15.462-2.461-32.93-3.38-51.23 27.02-41.727 12.265-80.23 9.65-122.628h10.34a11.644 11.72 0 0 1 11.574 12.367 960.182 966.542 0 0 0 .987 117.523c1.796 28.402 15.216 55.245 39.79 79.448a46.17 46.477 0 0 1 12.971 30.79c-5.245 1.333-8.698 7.556-4.258 11.759 12.053 11.165 16.649 27.921 18.3 36.716a5.895 5.934 0 0 0 5.801 4.83h94.346v16.356H585.066a14.767 14.865 0 0 1-14.768-14.865c1.473-24.64-22.89-39.217-22.84-38.578a39.829 40.093 0 0 0-17.3-4.001h-38.775a40.173 40.439 0 0 0-37.828 27.011h-37.349a22.723 22.874 0 0 1-17.34-8.072c-13.554-16.522-32.569-12.653-51.18-13.032a22.487 22.636 0 0 0-21.999 18.095h-47.079c-2.403-137.082 33.326-235.757 35.332-241.176M134.572 475.402h161.92v19.365h-161.92ZM7.5 666.845h111.2v33h-67v23.6h57.6v31.6H51.7v49.4H7.5Z"></path><rect width="111.2" height="137.6" x="-55.6" y="-68.8" fill="none" rx="0" ry="0" transform="translate(63.6 736.14)"></rect><path d="M209.3 664.445q35.6 0 55 18.2t19.4 53q0 34.8-19.4 53-19.4 18.2-55 18.2t-54.9-18.1q-19.3-18.1-19.3-53.1t19.3-53.1q19.3-18.1 54.9-18.1m0 33q-14.2 0-21.6 8.6-7.4 8.6-7.4 23.2v12.8q0 14.6 7.4 23.2t21.6 8.6q14.2 0 21.7-8.6t7.5-23.2v-12.8q0-14.6-7.5-23.2t-21.7-8.6"></path><rect width="148.6" height="142.4" x="-74.3" y="-71.2" fill="none" rx="0" ry="0" transform="translate(209.9 736.14)"></rect><path d="M438.1 709.045q0 12.6-6.8 22.8-6.8 10.2-19.8 15l30.6 57.6h-49.6l-24.4-50.2h-16.4v50.2h-44.2v-137.6h84.2q14.8 0 25.3 5.7t15.8 15.4q5.3 9.7 5.3 21.1m-45 1.8q0-5.4-3.6-9-3.6-3.6-8.8-3.6h-29v25.4h29q5.2 0 8.8-3.7 3.6-3.7 3.6-9.1"></path><rect width="134.6" height="137.6" x="-67.3" y="-68.8" fill="none" rx="0" ry="0" transform="translate(375.3 736.14)"></rect><path d="M528.7 664.445q19.8 0 35.6 6t25.1 17.7q9.3 11.7 9.3 28.5h-42.2q0-8.6-7.6-13.9-7.6-5.3-18.4-5.3-15.6 0-23.6 8.3-8 8.3-8 23.5v12.8q0 15.2 8 23.5t23.6 8.3q10.8 0 18.4-5.1 7.6-5.1 7.6-13.1h-31.2v-28h73.4v76.8h-22.8l-4.4-13.6q-18.8 16-49.2 16-34.2 0-51.4-17.9-17.2-17.9-17.2-53.3 0-35 19.5-53.1t55.5-18.1"></path><rect width="145" height="142.4" x="-72.5" y="-71.2" fill="none" rx="0" ry="0" transform="translate(526.7 736.14)"></rect><path d="M626.1 666.845h119v33h-74.8v19h64v31.6h-64v21h76.2v33H626.1Z"></path><rect width="120.4" height="137.6" x="-60.2" y="-68.8" fill="none" rx="0" ry="0" transform="translate(686.8 736.14)"></rect></svg></svg>