<svg xmlns="http://www.w3.org/2000/svg" version="1.1" xmlns:xlink="http://www.w3.org/1999/xlink" width="1500" height="1500" viewBox="0 0 1500 1500"><rect width="1500" height="1500" x="0" y="0" id="background" stroke="transparent" fill="#000000"></rect><svg xml:space="preserve" width="1000" height="1000" data-version="2" data-id="lg_FklsowYcfpiJn59RCk" viewBox="0 0 661 417" x="250" y="250"><rect width="100%" height="100%" fill="transparent"></rect><path fill="#e4e4e4" d="M6.285 410.319v-135.93h100.42v32.25h-65.66v24.77h54.14v31.87h-54.14v47.04Z"></path><rect width="100.42" height="135.93" x="-50.21" y="-67.97" fill="none" rx="0" ry="0" transform="translate(57 342.85)"></rect><path fill="#e4e4e4" d="M184.275 411.859q-20.74 0-36.29-8.64t-24.1-24.29q-8.54-15.65-8.54-36.38 0-21.32 8.83-36.96 8.83-15.65 24.58-24.29 15.74-8.64 36.48-8.64 20.54 0 36.09 8.45 15.56 8.44 24.39 23.9 8.83 15.46 8.83 36.58 0 20.73-8.74 36.57-8.73 15.84-24.57 24.77t-36.96 8.93m.77-32.83q12.28 0 19.77-5.67 7.49-5.66 10.85-14.11 3.36-8.45 3.36-16.7 0-6.15-1.82-12.58-1.83-6.43-5.76-12-3.94-5.57-10.47-9.02-6.53-3.46-16.13-3.46-12.09 0-19.58 5.47-7.49 5.47-10.94 13.92-3.46 8.45-3.46 17.47 0 9.03 3.55 17.48 3.55 8.44 11.14 13.82 7.58 5.38 19.49 5.38"></path><rect width="139.2" height="139.2" x="-69.6" y="-69.6" fill="none" rx="0" ry="0" transform="translate(185.44 342.76)"></rect><path fill="#e4e4e4" d="M272.785 410.319v-135.93h57.41q9.21 0 18.81 1.72 9.6 1.73 17.86 6.44 8.26 4.7 13.25 13.53 4.99 8.83 4.99 23.04 0 8.83-2.69 16.61-2.69 7.78-8.54 13.73-5.86 5.95-15.46 9.6l31.49 51.26h-39.55l-26.11-45.89h-16.71v45.89Zm34.75-76.41h22.85q4.99 0 8.74-.96 3.74-.96 6.33-2.79 2.59-1.82 3.94-4.51 1.34-2.69 1.34-6.34 0-5.37-2.69-8.06-2.68-2.69-7.1-3.65t-9.98-.96h-23.43Z"></path><rect width="117.12" height="135.93" x="-58.56" y="-67.97" fill="none" rx="0" ry="0" transform="translate(331.85 342.85)"></rect><path fill="#e4e4e4" d="M468.625 411.859q-20.35 0-35.42-8.55-15.08-8.54-23.33-24.28-8.26-15.75-8.26-37.25 0-16.13 4.71-28.9 4.7-12.77 13.53-21.79 8.83-9.02 21.22-13.73 12.38-4.7 27.55-4.7 15.74 0 28.9 5.28 13.15 5.28 21.88 16.32 8.74 11.04 11.04 28.13h-34.36q-1.16-6.15-4.52-9.8-3.36-3.64-8.44-5.37-5.09-1.73-11.62-1.73-9.6 0-16.13 3.26-6.53 3.27-10.46 8.74-3.94 5.47-5.67 12.1-1.72 6.62-1.72 13.34 0 9.02 3.16 17.38 3.17 8.35 10.37 13.53 7.2 5.19 19.49 5.19 6.14 0 11.71-1.54 5.57-1.54 9.41-4.9 3.84-3.36 4.8-8.73h-32.06v-29.19h68.54v5q0 22.84-6.91 38.97t-21.12 24.67q-14.21 8.55-36.29 8.55"></path><rect width="131.33" height="139.2" x="-65.67" y="-69.6" fill="none" rx="0" ry="0" transform="translate(467.78 342.76)"></rect><path fill="#e4e4e4" d="M551.185 410.319v-135.93h102.53v32.25h-67.78v20.74h55.87v30.72h-55.87v20.16h67.78v32.06Z"></path><rect width="102.53" height="135.93" x="-51.27" y="-67.97" fill="none" rx="0" ry="0" transform="translate(602.95 342.85)"></rect><path fill="#888888" d="M419.846 226.506H216.42v-41.84l37.198-37.206a6.238 6.238 0 1 1 8.823 8.822l-33.543 33.55v24.191h178.469v-23.021l-37.746-37.728v-34.278l20.162-20.162h18.753V16.62H153.032a6.243 6.243 0 0 1 0-12.479H421.02v107.172h-26.064l-12.854 12.846v23.954l37.745 37.724z"></path><path fill="#888888" d="M257.963 157.271a6.248 6.248 0 0 1-6.244-6.239c0-54.422-44.273-98.695-98.687-98.695a6.243 6.243 0 0 1 0-12.478c61.296 0 111.17 49.873 111.17 111.173a6.248 6.248 0 0 1-6.24 6.24m163.757-46.523a6.243 6.243 0 1 1 0-12.478c48.459 0 87.881-39.427 87.881-87.89a6.24 6.24 0 0 1 12.478 0c-.004 55.35-45.026 100.368-100.36 100.368"></path><path fill="#888888" d="M153.032 52.048a6.243 6.243 0 0 1-6.239-6.24V10.38a6.243 6.243 0 0 1 12.478 0v35.429a6.242 6.242 0 0 1-6.239 6.239m285.676 0a6.248 6.248 0 0 1-6.244-6.24V10.38a6.243 6.243 0 0 1 12.487 0v35.429a6.243 6.243 0 0 1-6.243 6.239"></path><path fill="#888888" d="M515.836 16.619H400.962a6.24 6.24 0 0 1 0-12.479h114.87a6.243 6.243 0 0 1 .004 12.479M412.079 198.975H353.82a6.243 6.243 0 1 1 0-12.478h58.262a6.246 6.246 0 0 1 6.244 6.239 6.248 6.248 0 0 1-6.248 6.239m-127.334 0H226.47a6.243 6.243 0 0 1 0-12.478h58.275a6.24 6.24 0 0 1 0 12.478m29.47-40.08h-53.542a6.243 6.243 0 0 1 0-12.482h53.542a6.243 6.243 0 0 1 0 12.483m-30.661-22.403H260.66a6.248 6.248 0 0 1 0-12.482h22.894a6.248 6.248 0 0 1 0 12.482"></path><path fill="#888888" d="M360.2 226.488a6.24 6.24 0 0 1-6.234-6.239c0-20.263-15.565-36.756-34.685-36.756-19.125 0-34.69 16.493-34.69 36.756a6.243 6.243 0 0 1-12.482 0c0-27.15 21.165-49.23 47.167-49.23 26.007 0 47.163 22.08 47.163 49.23a6.24 6.24 0 0 1-6.239 6.239"></path></svg></svg>